{"title":"WTW_Sports_720p_20110424_TTL","uid":6348908,"size":453609318,"categoryP":"video","categoryS":"hd___tv_shows","magnet":"?xt=urn:btih:5e88d3797a8f94212e537c36dad88a2260355826&amp;dn=WTW_Sports_720p_20110424_TTL&amp;tr=udp%3A%2F%2Ftracker.openbittorrent.com%3A80&amp;tr=udp%3A%2F%2Fopen.demonii.com%3A1337&amp;tr=udp%3A%2F%2Ftracker.coppersurfer.tk%3A6969&amp;tr=udp%3A%2F%2Fexodus.desync.com%3A6969","seeders":0,"leechers":1,"uploader":"thetorrentlord","files":2,"time":1303928832,"description":"Local sports report from Columbus Ohio. Enjoy and please share.\t\t\t\t\t\t\n\n\t\t\t\t\t\t\t\t\t\t\t\t\t\n\n\t\t\t\t\t\t\t\t\t\t\t\t\t\n\n\t\t\t\t                          \n\n******************************************************************************************************\n\n****************************************************************************************************** \n\n                                        \t\t\t\t\t\t\t\t\n\n\t\t\t\t\t\t\t\t\t\t\t\t\t\n\n\t\t                \t\t\t\t\t\n\nWTW_Sports_720p_20110424_TTL.avi\nFormat                           : AVI\nFormat/Info                      : Audio Video Interleave\nFile size                        : 433 MiB\nDuration                         : 26mn 20s\nOverall bit rate                 : 2 296 Kbps\nMovie name                       : WTW_Sports_720p_20110424_TTL.mpg\nDirector                         : created.with.SUPER(C).v2010.bld.37\nWriting application              : SUPER(C)   \n\nVideo\nID                               : 0\nFormat                           : MPEG-4 Visual\nFormat profile                   : Simple@L3\nFormat settings, BVOP            : No\nFormat settings, QPel            : No\nFormat settings, GMC             : No warppoints\nFormat settings, Matrix          : Default (H.263)\nCodec ID                         : XVID\nCodec ID/Hint                    : XviD\nDuration                         : 13mn 10s\nBit rate                         : 4 467 Kbps\nWidth                            : 1 280 pixels\nHeight                           : 720 pixels\nDisplay aspect ratio             : 16:9\nFrame rate                       : 29.970 fps\nResolution                       : 8 bits\nColorimetry                      : 4:2:0\nScan type                        : Progressive\nBits/(Pixel*Frame)               : 0.162\nStream size                      : 421 MiB (97%)\nWriting library                  : XviD 1.1.2 (UTC 2006-11-01)\n\nAudio\nID                               : 1\nFormat                           : MPEG Audio\nFormat version                   : Version 2\nFormat profile                   : Layer 3\nMode                             : Joint stereo\nFormat_Settings_ModeExtension    : MS Stereo\nCodec ID                         : 55\nCodec ID/Hint                    : MP3\nDuration                         : 26mn 20s\nBit rate mode                    : Constant\nBit rate                         : 112 Kbps\nChannel(s)                       : 2 channels\nSampling rate                    : 22.05 KHz\nStream size                      : 10.6 MiB (2%)\nAlignment                        : Aligned on interleaves\nInterleave, duration             : 26 ms (0.78 video frame)\nInterleave, preload duration     : 26 ms\nWriting library                  : LAME3.98\n\n\n\n\n\n\n","torrent":{"xt":"urn:btih:5e88d3797a8f94212e537c36dad88a2260355826","amp;dn":"WTW_Sports_720p_20110424_TTL","amp;tr":["udp%3A%2F%2Ftracker.openbittorrent.com%3A80","udp%3A%2F%2Fopen.demonii.com%3A1337","udp%3A%2F%2Ftracker.coppersurfer.tk%3A6969","udp%3A%2F%2Fexodus.desync.com%3A6969"],"infoHash":"5e88d3797a8f94212e537c36dad88a2260355826","infoHashBuffer":{"type":"Buffer","data":[94,136,211,121,122,143,148,33,46,83,124,54,218,216,138,34,96,53,88,38]},"announce":[],"urlList":[]}}